<svg width="20" height="24" viewBox="0 0 20 24" fill="none" xmlns="http://www.w3.org/2000/svg">
<path d="M14.6186 0C14.6744 0 14.7303 0 14.7893 0C14.9263 1.69253 14.2803 2.95719 13.4952 3.87301C12.7248 4.78251 11.6698 5.6646 9.9636 5.53076C9.84979 3.86247 10.4969 2.69161 11.281 1.77789C12.0081 0.92636 13.3413 0.168621 14.6186 0Z" fill="white"/>
<path d="M19.7837 17.6169C19.7837 17.6337 19.7837 17.6485 19.7837 17.6643C19.3042 19.1165 18.6202 20.3612 17.7855 21.5162C17.0236 22.5648 16.0898 23.976 14.4226 23.976C12.9819 23.976 12.025 23.0496 10.5485 23.0243C8.98668 22.999 8.12777 23.7989 6.69976 24.0002C6.53641 24.0002 6.37306 24.0002 6.21287 24.0002C5.16426 23.8485 4.31799 23.018 3.70147 22.2698C1.88353 20.0587 0.478708 17.2027 0.217346 13.5478C0.217346 13.1895 0.217346 12.8323 0.217346 12.4739C0.328004 9.85821 1.59898 7.73148 3.28835 6.70079C4.17993 6.15277 5.40559 5.6859 6.77037 5.89457C7.35527 5.9852 7.95282 6.18544 8.4766 6.38357C8.97298 6.57432 9.59371 6.91262 10.1818 6.8947C10.5801 6.88311 10.9764 6.67549 11.3779 6.529C12.5541 6.10429 13.707 5.6174 15.2267 5.84609C17.0531 6.12221 18.3493 6.93369 19.1503 8.1857C17.6053 9.16897 16.3839 10.6507 16.5925 13.1811C16.778 15.4796 18.1143 16.8244 19.7837 17.6169Z" fill="white"/>
</svg>
